<svg xmlns="http://www.w3.org/2000/svg" viewBox="0 0 256 512" fill="none">
<defs>
<linearGradient id="profileSkin" x1="0%" y1="0%" x2="100%" y2="0%">
    <stop offset="0%" stop-color="#C2D4C8" />
    <stop offset="50%" stop-color="#7E988A" />
    <stop offset="100%" stop-color="#465A4F" />
</linearGradient>
<!-- Darker skin gradient for limbs positioned in the background -->
<linearGradient id="backSkin" x1="0%" y1="0%" x2="100%" y2="0%">
    <stop offset="0%" stop-color="#5C7A68" />
    <stop offset="50%" stop-color="#3A4A41" />
    <stop offset="100%" stop-color="#24302A" />
</linearGradient>

<!-- Glossy dark gradient for the almond eye -->
<radialGradient id="eyeGloss" cx="30%" cy="30%" r="70%">
    <stop offset="0%" stop-color="#1A2520" />
    <stop offset="100%" stop-color="#050806" />
</radialGradient>
</defs>


<!-- RIGHT LEG (Background, stepping backward) -->
<g id="leg-right">
    <path d="M 125 360 C 135 400, 155 440, 175 480 C 180 490, 165 495, 160 485 C 140 445, 120 400, 115 365 Z"
        fill="url(#backSkin)" />
</g>


<!-- TORSO (Static registration point) -->
<g id="torso">
    <path d="M 105 230 C 95 260, 100 320, 105 365 C 115 375, 135 370, 135 360 C 145 310, 135 260, 125 230 Z"
        fill="url(#profileSkin)" />
</g>


<!-- LEFT LEG (Foreground, stepping forward) -->
<g id="leg-left">
    <path d="M 115 360 C 105 400, 80 440, 60 480 C 55 490, 70 495, 75 485 C 95 445, 120 400, 130 365 Z"
        fill="url(#profileSkin)" />
</g>

<!-- LEFT ARM (Foreground, swinging backward) -->
<g id="arm-left">
    <path d="M 115 245 C 130 270, 150 310, 165 355 C 170 365, 160 370, 155 360 C 140 320, 120 270, 105 250 Z"
        fill="url(#profileSkin)" />
</g>


<!-- HEAD GROUP (Static registration point) -->
<g id="head">
    <path
        d="M 120 220 C 110 170, 175 160, 205 120 C 230 85, 195 40, 140 30 C 95 20, 65 60, 55 90 C 45 120, 40 140, 40 150 C 40 160, 50 170, 45 175 C 40 180, 40 190, 50 195 C 60 200, 80 220, 100 220 Z"
        fill="url(#profileSkin)" />

    <g id="eye-left">
        <path d="M 45 145 C 55 135, 80 145, 90 160 C 70 165, 55 155, 45 145 Z" fill="url(#eyeGloss)" />
        <path d="M 45 145 C 55 135, 80 145, 90 160 C 70 165, 55 155, 45 145 Z" fill="none" stroke="#24302A"
            stroke-width="1.5" opacity="0.6" />
        <ellipse cx="55" cy="146" rx="2" ry="4" fill="#FFFFFF" transform="rotate(-15 55 146)" />
        <ellipse cx="53" cy="151" rx="1" ry="2" fill="#FFFFFF" opacity="0.4" transform="rotate(-15 53 151)" />
    </g>
    <!-- Minimal Mouth Line -->
    <path d="M 45 190 Q 50 193 55 190" stroke="#3A4A41" stroke-width="1.5" stroke-linecap="round" fill="none"
        opacity="0.5" />
</g>
</svg>
