<svg xmlns="http://www.w3.org/2000/svg" viewBox="0 0 256 512">
  <defs>
    <radialGradient id="alien-head-grad" cx="0.38" cy="0.3" r="0.78" fx="0.3" fy="0.2">
      <stop offset="0" stop-color="#C2D4C8"/>
      <stop offset="0.45" stop-color="#9AB0A2"/>
      <stop offset="0.7" stop-color="#7E988A"/>
      <stop offset="0.9" stop-color="#465A4F"/>
      <stop offset="1" stop-color="#64888D"/>
    </radialGradient>
    <linearGradient id="alien-torso-grad" x1="0" y1="0" x2="1" y2="1">
      <stop offset="0" stop-color="#C2D4C8"/>
      <stop offset="0.45" stop-color="#7E988A"/>
      <stop offset="0.85" stop-color="#465A4F"/>
      <stop offset="1" stop-color="#64888D"/>
    </linearGradient>
    <linearGradient id="alien-limb-grad" x1="0" y1="0" x2="1" y2="0">
      <stop offset="0" stop-color="#B0C4B8"/>
      <stop offset="0.5" stop-color="#7E988A"/>
      <stop offset="1" stop-color="#465A4F"/>
    </linearGradient>
    <linearGradient id="alien-leg-grad" x1="0" y1="0" x2="1" y2="0">
      <stop offset="0" stop-color="#9EB3A6"/>
      <stop offset="0.5" stop-color="#6F8A7B"/>
      <stop offset="1" stop-color="#465A4F"/>
    </linearGradient>
    <radialGradient id="alien-eye-grad" cx="0.4" cy="0.35" r="0.7">
      <stop offset="0" stop-color="#1A2520"/>
      <stop offset="1" stop-color="#050806"/>
    </radialGradient>
    <radialGradient id="alien-bulb-grad" cx="0.4" cy="0.35" r="0.65">
      <stop offset="0" stop-color="#ECFFFB"/>
      <stop offset="0.55" stop-color="#5eead4"/>
      <stop offset="1" stop-color="#2BBFAA"/>
    </radialGradient>
    <radialGradient id="alien-halo-grad" cx="0.5" cy="0.5" r="0.5">
      <stop offset="0" stop-color="#5eead4" stop-opacity="0.45"/>
      <stop offset="1" stop-color="#5eead4" stop-opacity="0"/>
    </radialGradient>
    <radialGradient id="alien-blush-grad" cx="0.5" cy="0.5" r="0.5">
      <stop offset="0" stop-color="#fda4af" stop-opacity="0.7"/>
      <stop offset="1" stop-color="#fda4af" stop-opacity="0"/>
    </radialGradient>
  </defs>

  <g id="alien-body">

    <!-- Left leg -->
    <g id="alien-leg-l" data-pivot="112 368">
      <path d="M102,368 A10,10 0 0 1 122,368 L118,430 A8,8 0 0 1 102,430 Z" fill="url(#alien-leg-grad)"/>
      <g id="alien-shin-l" data-pivot="110 430">
        <path d="M102,430 A8,8 0 0 1 118,430 L114,486 A6,6 0 0 1 102,486 Z" fill="url(#alien-leg-grad)"/>
        <g id="alien-foot-l" data-pivot="108 486">
          <path d="M101,486 A7,7 0 0 1 115,486 C116,492 117,499 112,500 L95,500 C88,500 86,493 93,491 C98,490 101,489 101,486 Z" fill="url(#alien-leg-grad)"/>
        </g>
      </g>
    </g>

    <!-- Right leg -->
    <g id="alien-leg-r" data-pivot="144 368">
      <path d="M134,368 A10,10 0 0 1 154,368 L154,430 A8,8 0 0 1 138,430 Z" fill="url(#alien-leg-grad)"/>
      <g id="alien-shin-r" data-pivot="146 430">
        <path d="M138,430 A8,8 0 0 1 154,430 L154,486 A6,6 0 0 1 142,486 Z" fill="url(#alien-leg-grad)"/>
        <g id="alien-foot-r" data-pivot="148 486">
          <path d="M155,486 A7,7 0 0 0 141,486 C140,492 139,499 144,500 L161,500 C168,500 170,493 163,491 C158,490 155,489 155,486 Z" fill="url(#alien-leg-grad)"/>
        </g>
      </g>
    </g>

    <!-- Torso -->
    <path id="alien-torso" d="M119,232 L137,232 C138,242 141,248 150,252 C156,255 162,260 162,270 C162,282 158,296 158,310 C158,326 166,340 164,354 C162,366 152,376 140,378 L116,378 C104,376 94,366 92,354 C90,340 98,326 98,310 C98,296 94,282 94,270 C94,260 100,255 106,252 C115,248 118,242 119,232 Z" fill="url(#alien-torso-grad)"/>
    <path d="M106,252 C100,255 94,260 94,270 C94,282 98,296 98,310 C98,326 90,340 92,354" fill="none" stroke="#DCF0E4" stroke-opacity="0.35" stroke-width="1.5" stroke-linecap="round"/>

    <!-- Left arm -->
    <g id="alien-arm-l" data-pivot="90 262">
      <path d="M81,262 A9,9 0 0 1 99,262 L89,326 A7,7 0 0 1 75,326 Z" fill="url(#alien-limb-grad)"/>
      <g id="alien-fore-l" data-pivot="82 326">
        <path d="M75,326 A7,7 0 0 1 89,326 L85,390 A5,5 0 0 1 75,390 Z" fill="url(#alien-limb-grad)"/>
        <g id="alien-hand-l" data-pivot="80 390">
          <circle cx="80" cy="390" r="6" fill="#8FA89A"/>
          <path d="M72,396 C72,390 88,390 88,396 L89,406 C89,412 71,412 71,406 Z" fill="url(#alien-limb-grad)"/>
          <g fill="none" stroke="#6F8A7B" stroke-width="4.5" stroke-linecap="round">
            <path d="M72,398 L65,410"/>
            <path d="M75,406 L71,423"/>
            <path d="M80,408 L80,426"/>
            <path d="M85,406 L89,423"/>
          </g>
          <circle cx="64.5" cy="411" r="3" fill="#7E988A"/>
          <circle cx="70.5" cy="424.5" r="3.2" fill="#7E988A"/>
          <circle cx="80" cy="427.5" r="3.2" fill="#7E988A"/>
          <circle cx="89.5" cy="424.5" r="3.2" fill="#6F8A7B"/>
        </g>
      </g>
    </g>

    <!-- Right arm (waving arm) -->
    <g id="alien-arm-r" data-pivot="166 262">
      <path d="M157,262 A9,9 0 0 1 175,262 L181,326 A7,7 0 0 1 167,326 Z" fill="url(#alien-limb-grad)"/>
      <g id="alien-fore-r" data-pivot="174 326">
        <path d="M167,326 A7,7 0 0 1 181,326 L181,390 A5,5 0 0 1 171,390 Z" fill="url(#alien-limb-grad)"/>
        <g id="alien-hand-r" data-pivot="176 390">
          <circle cx="176" cy="390" r="6" fill="#7E988A"/>
          <path d="M168,396 C168,390 184,390 184,396 L185,406 C185,412 167,412 167,406 Z" fill="url(#alien-limb-grad)"/>
          <g fill="none" stroke="#5E7869" stroke-width="4.5" stroke-linecap="round">
            <path d="M184,398 L191,410"/>
            <path d="M181,406 L185,423"/>
            <path d="M176,408 L176,426"/>
            <path d="M171,406 L167,423"/>
          </g>
          <circle cx="191.5" cy="411" r="3" fill="#6A8575"/>
          <circle cx="185.5" cy="424.5" r="3.2" fill="#6A8575"/>
          <circle cx="176" cy="427.5" r="3.2" fill="#7E988A"/>
          <circle cx="166.5" cy="424.5" r="3.2" fill="#7E988A"/>
        </g>
      </g>
    </g>

    <!-- Head -->
    <g id="alien-head" data-pivot="128 236">
      <g id="alien-antenna-l" data-pivot="106 46">
        <path d="M106,46 C104,30 94,20 85,13" fill="none" stroke="#7E988A" stroke-width="3" stroke-linecap="round"/>
        <circle cx="84" cy="10" r="13" fill="url(#alien-halo-grad)"/>
        <circle cx="84" cy="10" r="5" fill="url(#alien-bulb-grad)"/>
      </g>
      <g id="alien-antenna-r" data-pivot="150 46">
        <path d="M150,46 C152,30 162,20 171,13" fill="none" stroke="#6F8A7B" stroke-width="3" stroke-linecap="round"/>
        <circle cx="172" cy="10" r="13" fill="url(#alien-halo-grad)"/>
        <circle cx="172" cy="10" r="5" fill="url(#alien-bulb-grad)"/>
      </g>

      <path d="M128,36 C170,36 196,64 196,110 C196,150 180,186 158,210 C146,224 138,240 128,240 C118,240 110,224 98,210 C76,186 60,150 60,110 C60,64 86,36 128,36 Z" fill="url(#alien-head-grad)"/>
      <ellipse cx="104" cy="78" rx="24" ry="14" fill="#E4F0E8" opacity="0.16"/>
      <path d="M102,43 C78,54 62,78 61,110 C61,140 70,165 84,186" fill="none" stroke="#DCF0E4" stroke-opacity="0.35" stroke-width="2" stroke-linecap="round"/>

      <g id="alien-eye-l" data-pivot="94 160">
        <path d="M71,151 C80,138 110,144 117,165 C106,180 74,176 71,151 Z" fill="url(#alien-eye-grad)" stroke="#3A4A41" stroke-width="1.5" stroke-linejoin="round"/>
        <ellipse cx="83" cy="153" rx="4.5" ry="3" fill="#FFFFFF" opacity="0.95"/>
        <circle cx="91" cy="150" r="1.8" fill="#FFFFFF" opacity="0.5"/>
      </g>
      <g id="alien-eye-r" data-pivot="162 160">
        <path d="M185,151 C176,138 146,144 139,165 C150,180 182,176 185,151 Z" fill="url(#alien-eye-grad)" stroke="#3A4A41" stroke-width="1.5" stroke-linejoin="round"/>
        <ellipse cx="173" cy="153" rx="4.5" ry="3" fill="#FFFFFF" opacity="0.95"/>
        <circle cx="165" cy="150" r="1.8" fill="#FFFFFF" opacity="0.5"/>
      </g>

      <circle cx="123.5" cy="197" r="1.3" fill="#3A4A41" opacity="0.5"/>
      <circle cx="132.5" cy="197" r="1.3" fill="#3A4A41" opacity="0.5"/>

      <path id="alien-mouth" d="M120,217 Q128,221.5 136,217" fill="none" stroke="#3A4A41" stroke-width="1.8" stroke-opacity="0.5" stroke-linecap="round"/>
      <ellipse id="alien-mouth-open" cx="128" cy="219" rx="5" ry="6" fill="#1A2520" opacity="0"/>

      <g id="alien-blush" opacity="0">
        <ellipse cx="92" cy="187" rx="11" ry="5.5" fill="url(#alien-blush-grad)"/>
        <ellipse cx="164" cy="187" rx="11" ry="5.5" fill="url(#alien-blush-grad)"/>
      </g>
    </g>

  </g>
</svg>
